<?xml version="1.0" encoding="UTF-8" standalone="no"?>
<svg
   xmlns:dc="http://purl.org/dc/elements/1.1/"
   xmlns:cc="http://creativecommons.org/ns#"
   xmlns:rdf="http://www.w3.org/1999/02/22-rdf-syntax-ns#"
   xmlns:svg="http://www.w3.org/2000/svg"
   xmlns="http://www.w3.org/2000/svg"
   xmlns:sodipodi="http://sodipodi.sourceforge.net/DTD/sodipodi-0.dtd"
   xmlns:inkscape="http://www.inkscape.org/namespaces/inkscape"
   fill-opacity="1"
   color-rendering="auto"
   color-interpolation="auto"
   text-rendering="auto"
   stroke="#000000"
   stroke-linecap="square"
   stroke-miterlimit="10"
   shape-rendering="auto"
   stroke-opacity="1"
   fill="#000000"
   stroke-dasharray="none"
   font-weight="normal"
   stroke-width="1"
   font-family="Dialog"
   font-style="normal"
   stroke-linejoin="miter"
   font-size="12px"
   stroke-dashoffset="0"
   image-rendering="auto"
   version="1.1"
   id="svg9"
   sodipodi:docname="florette-symbolic.svg"
   width="238"
   height="232"
   inkscape:version="1.0.1 (3bc2e813f5, 2020-09-07, custom)">
  <metadata
     id="metadata13">
    <rdf:RDF>
      <cc:Work
         rdf:about="">
        <dc:format>image/svg+xml</dc:format>
        <dc:type
           rdf:resource="http://purl.org/dc/dcmitype/StillImage" />
        <dc:title></dc:title>
      </cc:Work>
    </rdf:RDF>
  </metadata>
  <sodipodi:namedview
     pagecolor="#ffffff"
     bordercolor="#666666"
     borderopacity="1"
     objecttolerance="10"
     gridtolerance="10"
     guidetolerance="10"
     inkscape:pageopacity="0"
     inkscape:pageshadow="2"
     inkscape:window-width="1920"
     inkscape:window-height="1020"
     id="namedview11"
     showgrid="false"
     inkscape:zoom="4.48"
     inkscape:cx="109.70982"
     inkscape:cy="89.652219"
     inkscape:window-x="0"
     inkscape:window-y="28"
     inkscape:window-maximized="1"
     inkscape:current-layer="svg9"
     inkscape:document-rotation="0" />
  <!--Unicode Character 'BLACK FLORETTE' (U+273F)-->
  <defs
     id="genericDefs" />
  <g
     id="g7"
     transform="matrix(1.0000023,0,0,0.99999953,-0.12502329,-163.67182)">
    <g
       id="g5">
      <path
         d="m 120.0938,361.9688 q -12.6563,23.9062 -37.6876,23.9062 -18.9843,0 -33.2656,-13.4219 -14.2656,-13.4375 -14.2656,-33.5469 0,-15.4687 12.0938,-28.8281 -19.8282,-3.7969 -28.3438,-16.0937 -8.5,-12.3125 -8.5,-27.0782 0,-13.0781 6.1094,-23.9687 6.125,-10.9063 16.0312,-16.9531 9.9219,-6.0469 21.875,-6.0469 8.5782,0 19.2656,4.3594 -0.5624,-7.7344 -0.5624,-9.5625 0,-16.0313 13.0781,-28.5469 13.0781,-12.5156 32.7656,-12.5156 19.2656,0 32.0625,12.7343 12.7969,12.7188 12.7969,29.5938 0,4.0781 -0.2813,6.8906 10.2656,-4.9218 19.5469,-4.9218 19.8281,0 32.4063,14.4843 12.5937,14.4844 12.5937,32.4844 0,11.5313 -7.5313,24.75 -7.5156,13.2187 -28.1874,18.4219 6.4687,6.8906 9.7031,13.4375 3.2343,6.5312 3.2343,16.7969 0,18.8437 -14.3437,33.1874 -14.3437,14.3438 -32.625,14.3438 -24.0469,0 -37.9687,-23.9062 z m 31.6406,-76.3594 q 0,-13.7813 -9.5,-23.2656 -9.4844,-9.5 -22.9844,-9.5 -13.6406,0 -23.2812,9.6406 -9.625,9.625 -9.625,23.125 0,13.5 9.5624,23.0625 9.5626,9.5625 23.3438,9.5625 13.5,0 22.9844,-9.5625 9.5,-9.5625 9.5,-23.0625 z"
         stroke="none"
         id="path3" />
    </g>
  </g>
</svg>
